<svg xmlns="http://www.w3.org/2000/svg" viewBox="0 0 24 24" width="24" height="24"><path d="M9.5 4C5.36 4 2 6.69 2 10c0 1.89 1.08 3.56 2.78 4.66L4 17l2.5-1.5c.89.31 1.87.5 2.91.5.17 0 .33 0 .5-.02-.31-.63-.5-1.33-.5-2.06 0-2.76 2.69-5 6-5 .46 0 .91.05 1.34.14C16.68 6.56 13.54 4 9.5 4zm-2 4.5c-.55 0-1-.45-1-1s.45-1 1-1 1 .45 1 1-.45 1-1 1zm5 0c-.55 0-1-.45-1-1s.45-1 1-1 1 .45 1 1-.45 1-1 1zm4.5 3c-2.76 0-5 1.79-5 4 0 2.21 2.24 4 5 4 .96 0 1.86-.21 2.64-.58L21 21l-.55-1.78C21.25 18.3 22 17.22 22 16c0-2.21-2.24-4-5-4zm-2.5 3c-.28 0-.5-.22-.5-.5s.22-.5.5-.5.5.22.5.5-.22.5-.5.5zm5 0c-.28 0-.5-.22-.5-.5s.22-.5.5-.5.5.22.5.5-.22.5-.5.5z" fill="#07C160"/></svg>